<?xml version="1.0" standalone="no"?><!DOCTYPE svg PUBLIC "-//W3C//DTD SVG 1.1//EN" "http://www.w3.org/Graphics/SVG/1.1/DTD/svg11.dtd"><svg t="1649568039706" class="icon" viewBox="0 0 1024 1024" version="1.1" xmlns="http://www.w3.org/2000/svg" p-id="8022" width="128" height="128" xmlns:xlink="http://www.w3.org/1999/xlink"><defs><style type="text/css"></style></defs><path d="M859.05378167 494.87511895L676.49312332 164.31778233c-3.45639799-6.28436002-10.05497602-10.21208501-17.28199003-10.36919403-7.85545002 0-13.82559203 3.61350702-17.59620803 9.74075801L441.45805887 494.24668297c-3.92772502 6.441469-3.92772502 14.45402802 0 20.89549702l200.15686639 330.71444567c3.61350702 5.97014202 10.21208501 9.74075802 17.28199003 9.74075802h0.47132699c7.22701402-0.15710901 13.82559203-4.08483399 17.28199004-10.36919402L859.2108907 514.51374401c3.14217999-6.127251 3.14217999-13.51137403-0.15710903-19.63862506z m-201.09952038 300.2352996L482.30639894 504.61587699 658.11137027 214.12133541l160.25118034 290.49454158-160.40828932 290.49454156z" fill="#FF2C2C" p-id="8023"></path><path d="M312.15735161 504.61587699l193.71539739-320.18814264c5.81303301-9.58364903 2.670853-21.83815103-6.75568703-27.65118405-9.42654002-5.65592402-21.83815103-2.670853-27.65118406 6.75568701L271.30901153 494.24668297c-3.92772502 6.441469-3.92772502 14.45402802 0 20.89549702l200.15686638 330.71444567c3.770616 6.28436002 10.36919402 9.74075802 17.28199005 9.74075802 3.61350702 0 7.22701402-0.94265401 10.36919401-2.98507101 9.58364903-5.81303301 12.56872002-18.06753504 6.75568703-27.65118405L312.15735161 504.61587699zM332.11019465 820.40496762c-0.47132701-1.25687199-0.628436-2.670853-1.413981-3.77061603s-1.41398101-2.19952601-2.356635-3.14218001c-0.47132701-1.25687199-1.09976302-2.35663501-1.72819901-3.45639798-5.81303301-9.58364903-18.22464404-12.41161103-27.65118407-6.75568703-9.42654002 5.81303301-12.56872002 18.22464404-6.755687 27.65118406l2.04241699 3.299289c0.31421799 0.628436 0.78554501 1.09976302 1.09976302 1.57109001 0.31421799 0.628436 0.628436 1.09976302 0.942654 1.728199l2.04241699 3.29928901c0.31421799 0.628436 0.94265401 0.78554501 1.25687202 1.256872 0.31421799 0.628436 0.31421799 1.25687199 0.62843598 1.88530801l1.09976301 1.728199c3.61350702 6.127251 9.74075802 9.26943102 16.18222703 9.26943102 3.61350702 0 7.38412301-1.09976302 10.99763002-3.14218 9.58364903-5.65592402 12.09739302-18.85308003 6.44146903-28.43672906-0.94265401-1.25687199-1.885308-2.042417-2.82796201-2.985071zM232.50308845 654.96919028c-0.47132701-1.25687199-1.09976302-2.51374401-1.728199-3.61350701-0.78554501-1.09976302-1.41398101-2.19952601-2.35663502-3.14218-0.47132701-1.25687199-1.09976302-2.35663501-1.728199-3.456398-5.81303301-9.58364903-18.22464404-12.56872002-27.65118405-6.75568701-9.42654002 5.81303301-12.56872002 18.22464404-6.75568702 27.65118405l2.04241702 3.299289c0.31421799 0.628436 0.78554501 1.09976302 1.09976298 1.57109001 0.31421799 0.628436 0.628436 1.09976302 0.94265403 1.728199l2.04241698 3.29928901 0.94265401 1.413981 0.94265399 1.88530801 2.04241702 3.299289c3.45639799 5.81303301 9.11232202 8.48388603 15.08246404 8.48388601 3.92772502 0 7.85545002-1.09976302 11.62606601-3.456398 9.58364903-5.81303301 11.46895703-19.79573404 5.81303302-29.37938306-0.78554501-0.94265401-1.57108999-2.042417-2.35663501-2.82796201zM282.46375054 737.45141543c-0.47132701-1.25687199-0.94265401-2.35663501-1.728199-3.45639799-0.78554501-1.25687199-1.57108999-2.19952601-2.356635-3.299289-0.47132701-1.25687199-1.09976302-2.35663501-1.72819901-3.45639802-5.81303301-9.58364903-18.22464404-12.41161103-27.65118406-6.75568701-9.42654002 5.81303301-12.56872002 18.22464404-6.75568701 27.65118406l2.04241701 3.299289c0.31421799 0.628436 0.78554501 1.09976302 1.099763 1.57109 0.31421799 0.47132701 0.47132701 1.09976302 0.78554502 1.57109001l2.04241698 3.299289c0.31421799 0.628436 0.78554501 1.25687199 1.25687201 1.72819902 0.31421799 0.628436 0.628436 1.09976302 0.94265401 1.72819899l2.042417 3.29928901c3.45639799 5.81303301 9.11232202 8.48388603 15.08246403 8.48388603 3.92772502 0 7.85545002-1.09976302 11.62606603-3.45639803 9.58364903-5.81303301 11.46895703-19.79573404 5.813033-29.37938306-0.94265401-0.78554501-1.72819901-1.885308-2.51374401-2.82796201zM182.38531734 572.17274713c-0.47132701-1.25687199-1.09976302-2.35663501-1.72819899-3.45639801-0.78554501-1.09976302-1.41398101-2.19952601-2.35663501-3.14218002-0.47132701-1.25687199-1.09976302-2.35663501-1.72819899-3.45639801-5.81303301-9.58364903-18.22464404-12.56872002-27.65118407-6.755687-9.42654002 5.81303301-12.56872002 18.22464404-6.75568702 27.65118404l2.042417 3.29928902c0.31421799 0.628436 0.78554501 1.09976302 1.09976301 1.57109 0.31421799 0.628436 0.628436 1.09976302 0.942654 1.72819899l2.04241702 3.29928902c0.31421799 0.628436 0.78554501 1.09976302 1.099763 1.57108999 0.31421799 0.47132701 0.47132701 1.09976302 0.78554499 1.57109002l2.04241702 3.299289c3.45639799 5.81303301 9.11232202 8.64099502 15.082464 8.64099501 3.770616 0 7.85545002-1.09976302 11.46895704-3.29928898 9.58364903-5.65592402 11.78317502-19.63862503 5.97014202-29.22227407-0.628436-1.25687199-1.41398101-2.35663501-2.35663502-3.299289zM142.32252227 503.35900498c0.94265401-0.94265401 1.72819901-2.042417 2.356635-3.14218 5.81303301-9.42654002 2.670853-21.83815103-6.75568701-27.65118405-9.42654002-5.81303301-21.83815103-2.82796201-27.65118405 6.75568701l-2.04241702 3.29928899c-0.31421799 0.628436-0.628436 1.09976302-0.94265398 1.72819901-0.47132701 0.47132701-0.78554501 1.09976302-1.09976301 1.57109001l-2.042417 3.29928899c-0.628436 0.94265401-0.628436 1.885308-0.94265401 2.82796202-0.628436 0.78554501-1.57108999 1.41398101-2.04241701 2.35663501-3.770616 6.28436002-3.770616 14.29691903-0.15710899 20.58127904l1.099763 1.728199c3.61350702 6.127251 9.74075802 9.26943102 16.18222704 9.26943101 3.61350702 0 7.38412301-0.94265401 10.840521-2.985071 4.71327001-2.670853 7.69834101-7.22701402 8.95521303-12.25450201 0.15710901-0.47132701 0.15710901-1.09976302 0.31421801-1.72819902 0.628436-0.78554501 1.72819901-1.25687199 2.35663499-2.199526 0.628436-1.09976302 1.25687199-2.35663501 1.57109001-3.45639801zM258.1118555 273.97986453c2.82796201 1.72819901 6.127251 2.51374401 9.26943102 2.51374401 7.54123201 0 15.39668203-4.24194301 19.32440703-10.99763003 0.628436-1.09976302 1.25687199-2.19952601 1.728199-3.45639801 0.94265401-0.94265401 1.72819901-2.042417 2.35663501-3.14218 0.628436-1.09976302 1.25687199-2.35663501 1.72819902-3.456398 0.78554501-0.94265401 1.57108999-2.042417 2.35663499-3.14218001 5.81303301-9.42654002 2.670853-21.83815103-6.75568701-27.65118406-9.42654002-5.65592402-21.83815103-2.82796201-27.65118405 6.75568701l-2.04241701 3.29928901-0.942654 1.88530799-0.94265401 1.41398102-2.042417 3.29928902c-0.31421799 0.628436-0.628436 1.09976302-0.94265402 1.72819899-0.47132701 0.47132701-0.78554501 1.09976302-1.09976298 1.57108999l-2.042417 3.299289c-5.97014202 9.42654002-1.885308 20.26706103 7.69834101 26.08009407zM242.40095546 337.92322765c0.78554501-0.94265401 1.57108999-2.042417 2.35663501-3.14217999 5.81303301-9.42654002 2.670853-21.83815103-6.75568701-27.65118405-9.42654002-5.81303301-21.83815103-2.82796201-27.65118407 6.75568699l-2.04241699 3.29928901-0.94265399 1.88530801-0.94265402 1.413981-2.04241699 3.29928901c-0.31421799 0.628436-0.628436 1.09976302-0.942654 1.72819901-0.47132701 0.47132701-0.78554501 1.09976302-1.09976301 1.57108999l-2.04241702 3.29928902c-5.81303301 9.42654002-1.72819901 20.26706103 7.85545003 26.08009405 2.82796201 1.72819901 6.127251 2.51374401 9.26943103 2.51374401 7.54123201 0 15.39668203-4.24194301 19.32440704-10.99763003 0.628436-1.09976302 1.25687199-2.19952601 1.72819898-3.45639801 0.94265401-0.94265401 1.72819901-2.042417 2.356635-3.14218002 0.628436-0.94265401 1.09976302-2.19952601 1.57109001-3.456398zM192.44029337 420.56256182c0.78554501-0.94265401 1.57108999-2.042417 2.356635-3.14218001 5.81303301-9.42654002 2.670853-21.83815103-6.75568702-27.65118405-9.42654002-5.65592402-21.83815103-2.82796201-27.65118404 6.75568701l-2.04241701 3.29928901-0.942654 1.885308-0.942654 1.41398101-2.042417 3.299289c-0.31421799 0.628436-0.628436 1.09976302-0.94265401 1.728199-0.47132701 0.47132701-0.78554501 1.09976302-1.099763 1.57109001l-2.04241701 3.299289c-5.81303301 9.42654002-1.72819901 20.26706103 7.85545003 26.08009404 2.82796201 1.72819901 6.127251 2.51374401 9.269431 2.51374402 7.54123201 0 15.39668203-4.24194301 19.32440704-10.99763001 0.628436-1.09976302 1.25687199-2.19952601 1.728199-3.45639802 0.94265401-0.94265401 1.72819901-2.042417 2.35663501-3.14217999 0.47132701-0.94265401 1.09976302-2.19952601 1.57109001-3.45639802zM307.75829959 192.12607537c2.98507101 1.72819901 6.28436002 2.51374401 9.58364903 2.51374401 7.38412301 0 14.61113702-3.92772502 18.53886203-10.52630303 5.65592402-9.58364903 2.51374401-21.99526005-7.06990502-27.65118405-9.42654002-5.65592402-21.83815103-2.51374401-27.65118404 7.06990501l-1.099763 1.72819902c-5.65592402 9.74075802-1.885308 21.20971504 7.698341 26.86563904z" fill="#FF2C2C" p-id="8024"></path></svg>